<?xml version="1.0" encoding="UTF-8"?>
<svg id="Layer_2" data-name="Layer 2" xmlns="http://www.w3.org/2000/svg" viewBox="0 0 1277.84 453.17">
  <defs>
    <style>
      .cls-1 {
        fill: #fff;
        stroke-width: 0px;
      }
    </style>
  </defs>
  <g id="Layer_1-2" data-name="Layer 1">
    <path class="cls-1" d="M463.1,237.86c.01-2.59,2.71-4.31,5.06-3.22,22.13,10.36,42.71,21.69,64.72,32.34,3.26,1.62,4.31,3.71,4.23,7.02-.95,35.4-10.34,67.93-32.36,96.25-80.83,111.92-280.57,66.71-292.28-74.9-4.21-85.88-.95-172.35-2.18-258.38,0-3.47-.92-5.16-4.65-5.38-37.85-2.23-75.68-8.06-113.67-6.35-26.03,1.74-16.37,9.53-1.97,21.44,23.79,18.01,50.93,29.3,78.92,38.83,2.59.88,5.47,1.31,5.66,5.24.34,6.96-.76,7.97-7.54,6.37C149.12,96.92-37.81,26.57,6.88,7.01c70.79-18.55,146.6,4.11,216.84,17.26,17.73,1.13,35.66.12,53.45.47,7.29,0,7.32.03,7.32,7.16.06,73.51.2,147.02.2,220.53,0,121.18,149.9,147.4,176.78,36.48,2.54-17.22,1.52-33.5,1.62-51.04Z"/>
    <path class="cls-1" d="M575.62,232.6c-.28-.62-.22-1.96.51-1.97,45.83-.5,91.79.57,137.66.07,27.9-.08,48.91-12.72,62.01-37.39,16.75-34.74-3.08-81.22-40.35-92.13-.03,0-.06-.02-.09-.02-38-8.48-78.09-1.98-116.82-4.08-.06,0-.12-.01-.17-.02-35.4-7.2-54.37-43.18-78.87-66.76-.65-.63-1.74-.17-1.76.74-1.35,59.43.23,118.68-.58,178.12-.09,6.74-1.21,7.37-7.35,4.44-17.72-8.46-35.36-17.11-53.15-25.44-9.42-4.41-14.18-9.97-13.97-21.85.79-44.32.01-88.66-.16-132.99-.03-8.54,0-8.58,8.55-8.57,79.99.01,159.98-.35,239.96.21,82.34-2.37,154.83,74.6,144.2,156.99-6.14,64.07-61.67,119.87-127.38,119.27-12.19.28-23.27-3.59-33.94-8.96-39.44-19.86-78.91-39.66-118.3-59.63"/>
    <path class="cls-1" d="M969,24.07c1.15-2.55,4.78-2.55,5.91,0,51.71,116.04,100.5,232.66,149.77,349.69.85,1.92,2.72,3.94,4.62,4.75,47.48,22.17,93.96,38.47,143.77,64.29,18.41,9.54-20.54,12.25-47.76,9.09-98.98-11.48-269-59.36-396.66-109.52-4.29-1.61-4.81-3.53-2.98-7.44,12.13-25.94,24.08-51.97,36.13-77.94,36.13-77.55,72.12-154.92,107.2-232.94ZM1059.66,397.84c-30.02-66.43-59.69-132.09-89.57-198.21-.48-1.05-1.97-1.07-2.47-.03-23.59,49.01-44.95,99.19-67.98,148.53-1.33,2.92-1.16,4.39,2.21,5.48,51.4,17.63,103.31,32.5,155.85,46.56,1.37.37,2.56-1.03,1.97-2.33ZM1130.7,383.57c-.76-.36-1.59.44-1.35,1.24,3.53,11.57,9.63,21.56,13.94,32.87,1.55,3.65,4.06,5.38,7.78,6.12,23.31,4.7,46.45,10.46,70.25,12,1.45.14,4.47-.31,4.56-1.99.23-4.13-8.47-8.62-13.8-11.29-22.48-11.26-54.35-26.38-81.39-38.96Z"/>
    <path class="cls-1" d="M571.12,360.33c0-22.17-.03-44.33.02-66.5.01-5.65,1.05-6.33,6.18-4.13,20.33,8.74,40.6,17.6,60.97,26.24,4.25,1.8,6.02,4.32,5.97,9.07-.33,34.16-.46,68.33-.51,102.5,0,3.8-1.6,4.97-5.07,4.97-21-.04-41.99-.05-62.99.07-4.16.02-5.42-1.67-5.39-5.72"/>
  </g>
</svg>